<svg viewBox="0 0 168 168" fill="none" xmlns="http://www.w3.org/2000/svg"> <path d="M85.3281 148.598H122.363V122.144H101.2V79.8178H122.363C115.485 72.9407 113.766 65.4894 113.766 62.6235V33.5239H85.3281V44.7671M85.3281 148.598V44.7671M85.3281 148.598H56.2286V44.7671H85.3281" stroke="#2D3D4D" style="stroke:#2D3D4D;stroke:color(display-p3 0.1765 0.2392 0.3020);stroke-opacity:1;" stroke-width="1.5" stroke-linecap="round" stroke-linejoin="round"></path> <path d="M64.8253 92.3832V121.483M64.8253 121.483H61.5186V143.307H80.0362V121.483H76.0684M64.8253 121.483H70.7774M76.0684 121.483H70.7774M76.0684 121.483V92.3832M70.7774 121.483V92.3832M51.5987 22.9419V57.3325H70.7774M44.9855 22.9419V67.2524H70.7774M62.8419 18.9741V22.9419M62.8419 22.9419H77.3907L77.3917 28.2329M62.8419 22.9419V28.2329M62.8419 44.7671V39.145M62.8419 39.145V33.5239M62.8419 39.145H77.3907M77.3907 18.9741L77.3917 22.9419M77.3907 44.7671L77.3917 39.145L77.3907 33.5239H62.8419M62.8419 28.2329H77.3907L77.3917 33.5239M62.8419 28.2329V33.5239M70.7784 134.709H103.185M119.058 79.8188V121.483" stroke="#2D3D4D" style="stroke:#2D3D4D;stroke:color(display-p3 0.1765 0.2392 0.3020);stroke-opacity:1;" stroke-width="1.5" stroke-linecap="round" stroke-linejoin="round"></path> <path fill-rule="evenodd" clip-rule="evenodd" d="M104.173 119.164H106.164V121.156H104.173V119.164ZM106.818 116.519H108.81V118.51H106.818V116.519ZM109.464 119.164H111.455V121.156H109.464V119.164ZM112.108 116.519H114.1V118.51H112.108V116.519ZM114.754 119.164H116.745V121.156H114.754V119.164Z" fill="#2D3D4D" stroke="#2D3D4D" style="fill:#2D3D4D;fill:color(display-p3 0.1765 0.2392 0.3020);fill-opacity:1;stroke:#2D3D4D;stroke:color(display-p3 0.1765 0.2392 0.3020);stroke-opacity:1;" stroke-width="1.5"></path> <path d="M113.129 103.242C115.213 99.4193 111.682 95.7322 109.657 94.3674C110.524 95.7322 110.525 98.691 109.657 100.511C107.053 105.972 105.316 109.386 110.525 115.53C109.657 110.751 110.525 108.021 113.129 103.242Z" stroke="#2D3D4D" style="stroke:#2D3D4D;stroke:color(display-p3 0.1765 0.2392 0.3020);stroke-opacity:1;" stroke-width="1.5" stroke-linecap="round" stroke-linejoin="round"></path> <path d="M114.835 110.709C115.668 108.798 114.256 106.954 113.445 106.272C113.792 106.954 113.792 108.433 113.445 109.343C112.404 112.074 111.709 113.78 113.792 116.853C113.445 114.463 113.792 113.098 114.835 110.709ZM104.761 111.477C103.928 109.804 105.34 108.191 106.15 107.594C105.803 108.191 105.803 109.485 106.15 110.282C107.192 112.672 107.887 114.165 105.803 116.853C106.15 114.762 105.803 113.568 104.761 111.477Z" fill="#2D3D4D" style="fill:#2D3D4D;fill:color(display-p3 0.1765 0.2392 0.3020);fill-opacity:1;"></path> </svg>