<svg viewBox="0 0 168 168" fill="none" xmlns="http://www.w3.org/2000/svg"> <path fill-rule="evenodd" clip-rule="evenodd" d="M39.4138 22.2659H128.589V133.735H39.4138V22.2659Z" stroke="#2D3D4D" style="stroke:#2D3D4D;stroke:color(display-p3 0.1765 0.2392 0.3020);stroke-opacity:1;" stroke-width="1.5" stroke-linecap="round" stroke-linejoin="round"></path> <path d="M113.727 126.304C117.011 126.304 119.672 123.642 119.672 120.358C119.672 117.075 117.011 114.413 113.727 114.413C110.444 114.413 107.782 117.075 107.782 120.358C107.782 123.642 110.444 126.304 113.727 126.304Z" stroke="#2D3D4D" style="stroke:#2D3D4D;stroke:color(display-p3 0.1765 0.2392 0.3020);stroke-opacity:1;" stroke-width="1.5" stroke-linecap="round" stroke-linejoin="round"></path> <path d="M50.563 123.332C51.7943 123.332 52.7924 122.334 52.7924 121.102C52.7924 119.871 51.7943 118.873 50.563 118.873C49.3317 118.873 48.3335 119.871 48.3335 121.102C48.3335 122.334 49.3317 123.332 50.563 123.332Z" stroke="#2D3D4D" style="stroke:#2D3D4D;stroke:color(display-p3 0.1765 0.2392 0.3020);stroke-opacity:1;" stroke-width="1.5" stroke-linecap="round" stroke-linejoin="round"></path> <path d="M60.9643 123.332C62.1956 123.332 63.1938 122.334 63.1938 121.102C63.1938 119.871 62.1956 118.873 60.9643 118.873C59.733 118.873 58.7349 119.871 58.7349 121.102C58.7349 122.334 59.733 123.332 60.9643 123.332Z" stroke="#2D3D4D" style="stroke:#2D3D4D;stroke:color(display-p3 0.1765 0.2392 0.3020);stroke-opacity:1;" stroke-width="1.5" stroke-linecap="round" stroke-linejoin="round"></path> <path d="M39.4138 106.239H128.589" stroke="#2D3D4D" style="stroke:#2D3D4D;stroke:color(display-p3 0.1765 0.2392 0.3020);stroke-opacity:1;" stroke-width="1.5" stroke-linecap="round" stroke-linejoin="round"></path> <path fill-rule="evenodd" clip-rule="evenodd" d="M86.4499 84.5041C86.8007 86.8047 85.1504 87.5093 85.1504 87.5093C86.0427 82.8804 81.5245 78.7427 81.5245 78.7427C81.8753 81.909 78.0588 85.4785 78.0588 89.2417C78.0588 92.1965 80.4898 94.6276 83.4447 94.6276C86.4193 94.6276 88.8305 92.326 88.8305 89.296C88.8305 85.6139 86.4499 84.5041 86.4499 84.5041Z" stroke="#2D3D4D" style="stroke:#2D3D4D;stroke:color(display-p3 0.1765 0.2392 0.3020);stroke-opacity:1;" stroke-width="1.5"></path> <path d="M84.001 133.734L84 145.737" stroke="#2D3D4D" style="stroke:#2D3D4D;stroke:color(display-p3 0.1765 0.2392 0.3020);stroke-opacity:1;" stroke-width="1.5" stroke-linecap="round" stroke-linejoin="round"></path> <path d="M76.001 133.734L76 145.737" stroke="#2D3D4D" style="stroke:#2D3D4D;stroke:color(display-p3 0.1765 0.2392 0.3020);stroke-opacity:1;" stroke-width="1.5" stroke-linecap="round" stroke-linejoin="round"></path> <path d="M68.001 133.734L68 145.737" stroke="#2D3D4D" style="stroke:#2D3D4D;stroke:color(display-p3 0.1765 0.2392 0.3020);stroke-opacity:1;" stroke-width="1.5" stroke-linecap="round" stroke-linejoin="round"></path> <path d="M92.001 133.734L92 145.737" stroke="#2D3D4D" style="stroke:#2D3D4D;stroke:color(display-p3 0.1765 0.2392 0.3020);stroke-opacity:1;" stroke-width="1.5" stroke-linecap="round" stroke-linejoin="round"></path> <path d="M100.001 133.734L100 145.737" stroke="#2D3D4D" style="stroke:#2D3D4D;stroke:color(display-p3 0.1765 0.2392 0.3020);stroke-opacity:1;" stroke-width="1.5" stroke-linecap="round" stroke-linejoin="round"></path> </svg>