<svg viewBox="0 0 168 168" fill="none" xmlns="http://www.w3.org/2000/svg"> <path d="M97.9301 86.4259C97.9301 93.1929 91.0353 99.3215 81.3317 99.3215C76.0968 99.3215 70.0958 95.7465 66.7761 90.6393L51.7099 100.343C58.0939 110.302 69.7128 117.197 81.3317 117.197C102.399 117.197 115.805 104.173 115.805 86.4259C115.805 67.7846 103.548 57.8255 88.4817 57.8255C82.9915 57.8255 76.4798 59.23 73.1601 62.1667L75.3307 48.6326H110.187V32.2896H61.1582L54.2635 76.8499L64.0949 81.9571C68.819 74.5516 77.5013 72.7641 82.4808 72.7641C91.163 72.7641 97.9301 77.1052 97.9301 86.4259Z" fill="#2D3D4D" style="fill:#2D3D4D;fill:color(display-p3 0.1765 0.2392 0.3020);fill-opacity:1;"></path> </svg>