<svg viewBox="0 0 168 168" fill="none" xmlns="http://www.w3.org/2000/svg"> <path d="M7.28654 65.5411L24.2599 58.0603V106.141H15.2997V70.3347L7.28654 73.5303V65.5411Z" fill="#2D3D4D" style="fill:#2D3D4D;fill:color(display-p3 0.1765 0.2392 0.3020);fill-opacity:1;"></path> <path d="M43.7135 88.0561H54.2761V71.4966L43.7135 88.0561ZM69.5011 95.8274H63.1634V106.141H54.2761V95.8274H30.7468L54.4946 58.6412H63.1634V88.0561H69.5011V95.8274Z" fill="#2D3D4D" style="fill:#2D3D4D;fill:color(display-p3 0.1765 0.2392 0.3020);fill-opacity:1;"></path> <path d="M74.6878 95.1719V89.3142H94.9054V95.1719H74.6878Z" fill="#2D3D4D" style="fill:#2D3D4D;fill:color(display-p3 0.1765 0.2392 0.3020);fill-opacity:1;"></path> <path d="M99.6557 65.5411L116.629 58.0603V106.141H107.669V70.3347L99.6557 73.5303V65.5411Z" fill="#2D3D4D" style="fill:#2D3D4D;fill:color(display-p3 0.1765 0.2392 0.3020);fill-opacity:1;"></path> <path d="M150.142 91.1063C150.215 87.1117 147.155 83.8434 143.149 83.7708C139.142 83.6981 135.791 86.8938 135.718 90.8884C135.718 94.9557 138.923 98.224 142.857 98.224C146.864 98.2966 150.069 95.1736 150.142 91.1063ZM144.606 75.491C152.109 75.491 159.393 81.5193 159.321 91.6147C159.175 100.548 152.254 106.94 142.42 106.867C133.678 106.722 126.831 100.403 126.03 90.38C124.864 75.6363 127.341 57.2611 144.533 57.7695C150.069 57.9874 155.533 59.7305 158.884 66.9934L150.652 70.4796C149.122 67.3565 146.718 66.1218 144.241 66.1218C137.394 66.1218 134.553 73.3121 134.99 80.8656C135.864 78.4688 139.579 75.491 144.606 75.491Z" fill="#2D3D4D" style="fill:#2D3D4D;fill:color(display-p3 0.1765 0.2392 0.3020);fill-opacity:1;"></path> </svg>