<svg viewBox="0 0 168 168" fill="none" xmlns="http://www.w3.org/2000/svg"> <mask id="mask0_12517_12725" style="mask-type:luminance" maskUnits="userSpaceOnUse" x="0" y="0" width="152" height="152"> <path d="M151.915 0H0V151.915H151.915V0Z" fill="white" style="fill:white;fill-opacity:1;"></path> </mask> <g mask="url(#mask0_12517_12725)"> <path d="M-8.93616 134.936H151.915" stroke="#2D3D4D" style="stroke:#2D3D4D;stroke:color(display-p3 0.1765 0.2392 0.3020);stroke-opacity:1;" stroke-width="1.5"></path> <path d="M113.489 67.9149H160.851M113.489 101.872H160.851" stroke="#2D3D4D" style="stroke:#2D3D4D;stroke:color(display-p3 0.1765 0.2392 0.3020);stroke-opacity:1;" stroke-width="1.5"></path> <path d="M141.638 57.1915C141.638 57.1915 143.872 57.6383 147.447 57.6383C150.128 57.6383 153.255 57.1915 153.255 57.1915" stroke="#2D3D4D" style="stroke:#2D3D4D;stroke:color(display-p3 0.1765 0.2392 0.3020);stroke-opacity:1;" stroke-width="1.5"></path> <path d="M140.155 58.6928C141.063 58.6928 141.799 57.9566 141.799 57.0486C141.799 56.1405 141.063 55.4043 140.155 55.4043C139.247 55.4043 138.511 56.1405 138.511 57.0486C138.511 57.9566 139.247 58.6928 140.155 58.6928Z" stroke="#2D3D4D" style="stroke:#2D3D4D;stroke:color(display-p3 0.1765 0.2392 0.3020);stroke-opacity:1;" stroke-width="1.5" stroke-linecap="round" stroke-linejoin="round"></path> <path d="M141.638 84.8936C141.638 84.8936 143.872 85.3404 147.447 85.3404C150.128 85.3404 153.255 84.8936 153.255 84.8936" stroke="#2D3D4D" style="stroke:#2D3D4D;stroke:color(display-p3 0.1765 0.2392 0.3020);stroke-opacity:1;" stroke-width="1.5"></path> <path d="M140.155 86.3949C141.063 86.3949 141.799 85.6587 141.799 84.7506C141.799 83.8425 141.063 83.1064 140.155 83.1064C139.247 83.1064 138.511 83.8425 138.511 84.7506C138.511 85.6587 139.247 86.3949 140.155 86.3949Z" stroke="#2D3D4D" style="stroke:#2D3D4D;stroke:color(display-p3 0.1765 0.2392 0.3020);stroke-opacity:1;" stroke-width="1.5" stroke-linecap="round" stroke-linejoin="round"></path> <path d="M141.638 118.851C141.638 118.851 143.872 119.298 147.447 119.298C150.128 119.298 153.255 118.851 153.255 118.851" stroke="#2D3D4D" style="stroke:#2D3D4D;stroke:color(display-p3 0.1765 0.2392 0.3020);stroke-opacity:1;" stroke-width="1.5"></path> <path d="M83.1064 134.936H74.1702V128.681H83.1064V134.936Z" stroke="#2D3D4D" style="stroke:#2D3D4D;stroke:color(display-p3 0.1765 0.2392 0.3020);stroke-opacity:1;" stroke-width="1.5" stroke-linecap="round" stroke-linejoin="round"></path> <path d="M40.2128 134.936H31.2766V128.681H40.2128V134.936Z" stroke="#2D3D4D" style="stroke:#2D3D4D;stroke:color(display-p3 0.1765 0.2392 0.3020);stroke-opacity:1;" stroke-width="1.5" stroke-linecap="round" stroke-linejoin="round"></path> <path d="M140.155 120.352C141.063 120.352 141.799 119.616 141.799 118.708C141.799 117.8 141.063 117.064 140.155 117.064C139.247 117.064 138.511 117.8 138.511 118.708C138.511 119.616 139.247 120.352 140.155 120.352Z" stroke="#2D3D4D" style="stroke:#2D3D4D;stroke:color(display-p3 0.1765 0.2392 0.3020);stroke-opacity:1;" stroke-width="1.5" stroke-linecap="round" stroke-linejoin="round"></path> <path d="M-8.93616 134.936H151.915" stroke="#2D3D4D" style="stroke:#2D3D4D;stroke:color(display-p3 0.1765 0.2392 0.3020);stroke-opacity:1;" stroke-width="1.5"></path> <path d="M112.596 45.5745H151.915" stroke="#2D3D4D" style="stroke:#2D3D4D;stroke:color(display-p3 0.1765 0.2392 0.3020);stroke-opacity:1;" stroke-width="1.5"></path> <path d="M113.489 36.6383V134.936" stroke="#2D3D4D" style="stroke:#2D3D4D;stroke:color(display-p3 0.1765 0.2392 0.3020);stroke-opacity:1;" stroke-width="1.5"></path> <path d="M112.596 37.5319H151.915" stroke="#2D3D4D" style="stroke:#2D3D4D;stroke:color(display-p3 0.1765 0.2392 0.3020);stroke-opacity:1;" stroke-width="1.5"></path> <path d="M24.1277 37.5319H89.8979V128.681H24.1277V37.5319Z" stroke="#2D3D4D" style="stroke:#2D3D4D;stroke:color(display-p3 0.1765 0.2392 0.3020);stroke-opacity:1;" stroke-width="1.5" stroke-linecap="round" stroke-linejoin="round"></path> <path d="M78.6134 52.5566C81.035 52.5566 82.9981 50.5935 82.9981 48.1719C82.9981 45.7503 81.035 43.7872 78.6134 43.7872C76.1918 43.7872 74.2287 45.7503 74.2287 48.1719C74.2287 50.5935 76.1918 52.5566 78.6134 52.5566Z" stroke="#2D3D4D" style="stroke:#2D3D4D;stroke:color(display-p3 0.1765 0.2392 0.3020);stroke-opacity:1;" stroke-width="1.5" stroke-linecap="round" stroke-linejoin="round"></path> <path d="M32.0273 50.3649C32.9353 50.3649 33.6715 49.6288 33.6715 48.7207C33.6715 47.8126 32.9353 47.0764 32.0273 47.0764C31.1192 47.0764 30.383 47.8126 30.383 48.7207C30.383 49.6288 31.1192 50.3649 32.0273 50.3649Z" stroke="#2D3D4D" style="stroke:#2D3D4D;stroke:color(display-p3 0.1765 0.2392 0.3020);stroke-opacity:1;" stroke-width="1.5" stroke-linecap="round" stroke-linejoin="round"></path> <path d="M39.6989 50.3649C40.607 50.3649 41.3432 49.6288 41.3432 48.7207C41.3432 47.8126 40.607 47.0764 39.6989 47.0764C38.7908 47.0764 38.0547 47.8126 38.0547 48.7207C38.0547 49.6288 38.7908 50.3649 39.6989 50.3649Z" stroke="#2D3D4D" style="stroke:#2D3D4D;stroke:color(display-p3 0.1765 0.2392 0.3020);stroke-opacity:1;" stroke-width="1.5" stroke-linecap="round" stroke-linejoin="round"></path> <path d="M24.1277 59.0682H89.8979" stroke="#2D3D4D" style="stroke:#2D3D4D;stroke:color(display-p3 0.1765 0.2392 0.3020);stroke-opacity:1;" stroke-width="1.5" stroke-linecap="round" stroke-linejoin="round"></path> <path d="M58.8179 73.4659C59.0771 75.1627 57.8596 75.6819 57.8596 75.6819C58.5179 72.2683 55.1852 69.2164 55.1852 69.2164C55.4444 71.5516 52.6292 74.1843 52.6292 76.9595C52.6292 79.1538 54.4076 80.9323 56.602 80.9323C58.7955 80.9323 60.5739 79.2347 60.5739 76.9995C60.5739 74.2843 58.8179 73.4659 58.8179 73.4659Z" stroke="#2D3D4D" style="stroke:#2D3D4D;stroke:color(display-p3 0.1765 0.2392 0.3020);stroke-opacity:1;" stroke-width="1.5"></path> </g> </svg>