<svg viewBox="0 0 168 168" fill="none" xmlns="http://www.w3.org/2000/svg"> <path d="M84 137.617C113.612 137.617 137.617 113.612 137.617 84C137.617 54.3881 113.612 30.3829 84 30.3829C54.3881 30.3829 30.3829 54.3881 30.3829 84C30.3829 113.612 54.3881 137.617 84 137.617Z" stroke="#2D3D4D" style="stroke:#2D3D4D;stroke:color(display-p3 0.1765 0.2392 0.3020);stroke-opacity:1;" stroke-width="1.5" stroke-linecap="round" stroke-linejoin="round"></path> <path d="M50.9361 82.9864C50.9361 65.2856 65.5392 50.9362 83.5531 50.9362C101.567 50.9362 116.17 65.2856 116.17 82.9864C116.17 91.7343 112.604 99.6634 106.821 105.447M60.2851 105.447C56.2268 101.388 53.2598 96.2721 51.8514 90.5574" stroke="#2D3D4D" style="stroke:#2D3D4D;stroke:color(display-p3 0.1765 0.2392 0.3020);stroke-opacity:1;" stroke-width="1.5" stroke-linecap="round" stroke-linejoin="round"></path> <path d="M78.8449 80.6361L46.8705 84.0025C45.3979 84.1576 44.33 85.4775 44.4859 86.9501C44.6418 88.422 45.9614 89.4886 47.4333 89.3331L79.4073 85.9475M88.1918 79.6257L90.4136 79.3905C91.8854 79.2346 93.2061 80.3018 93.3616 81.7741C93.5171 83.2465 92.4501 84.5665 90.9783 84.7224L88.7563 84.9576" stroke="#2D3D4D" style="stroke:#2D3D4D;stroke:color(display-p3 0.1765 0.2392 0.3020);stroke-opacity:1;" stroke-width="1.5"></path> <path d="M78.8603 80.6138L79.2445 80.0096C80.0838 78.6249 81.5375 77.6344 83.2719 77.4508C84.9857 77.2693 86.5733 77.9181 87.6829 79.0702L88.1911 79.6258M79.4249 85.9457L79.8661 86.4005C80.9777 87.6205 82.6351 88.3133 84.4022 88.1262C86.2285 87.9328 87.5354 86.867 88.3496 85.3662L88.7556 84.9577" stroke="#2D3D4D" style="stroke:#2D3D4D;stroke:color(display-p3 0.1765 0.2392 0.3020);stroke-opacity:1;" stroke-width="1.5" stroke-linecap="round" stroke-linejoin="round"></path> </svg>