<svg viewBox="0 0 168 168" fill="none" xmlns="http://www.w3.org/2000/svg"> <g clip-path="url(#clip0_12517_13454)"> <path d="M-18 45H93.5M249 45H111M-18 147H50.5M249 147H75.5" stroke="#2D3D4D" style="stroke:#2D3D4D;stroke:color(display-p3 0.1765 0.2392 0.3020);stroke-opacity:1;" stroke-width="1.5"></path> <path d="M-1 80L77 148.315L66.1163 160L-1.5 101" stroke="#2D3D4D" style="stroke:#2D3D4D;stroke:color(display-p3 0.1765 0.2392 0.3020);stroke-opacity:1;" stroke-width="1.5"></path> <path d="M5 106.5V147.085M21 120.553V147.085" stroke="#2D3D4D" style="stroke:#2D3D4D;stroke:color(display-p3 0.1765 0.2392 0.3020);stroke-opacity:1;" stroke-width="1.5"></path> <path d="M93.0108 17.8829V17.1329C92.5965 17.1329 92.2608 17.4687 92.2608 17.8829H93.0108ZM111.019 17.8829H111.769C111.769 17.4687 111.433 17.1329 111.019 17.1329V17.8829ZM111.019 52.0986V52.8486C111.433 52.8486 111.769 52.5128 111.769 52.0986H111.019ZM93.0108 52.0986H92.2608C92.2608 52.5128 92.5965 52.8486 93.0108 52.8486V52.0986ZM93.0108 17.8829V18.6329H111.019V17.8829V17.1329H93.0108V17.8829ZM111.019 17.8829H110.269V52.0986H111.019H111.769V17.8829H111.019ZM111.019 52.0986V51.3486H93.0108V52.0986V52.8486H111.019V52.0986ZM93.0108 52.0986H93.7608V17.8829H93.0108H92.2608V52.0986H93.0108Z" fill="#2D3D4D" style="fill:#2D3D4D;fill:color(display-p3 0.1765 0.2392 0.3020);fill-opacity:1;"></path> <path d="M92.9882 35.8914H102.014M111.04 35.8914H102.014M102.014 35.8914V17.8613" stroke="#2D3D4D" style="stroke:#2D3D4D;stroke:color(display-p3 0.1765 0.2392 0.3020);stroke-opacity:1;" stroke-width="1.5" stroke-linecap="round" stroke-linejoin="round"></path> <path d="M118.157 93.6115H115.525H89.2078H85.6988L83.9443 100.989H119.911L118.157 93.6115Z" stroke="#2D3D4D" style="stroke:#2D3D4D;stroke:color(display-p3 0.1765 0.2392 0.3020);stroke-opacity:1;" stroke-width="1.5" stroke-linecap="round" stroke-linejoin="round"></path> <path d="M89.4092 97.1193V97.8693C88.995 97.8693 88.6592 97.5335 88.6592 97.1193H89.4092ZM114.621 97.1193H115.371C115.371 97.5335 115.035 97.8693 114.621 97.8693V97.1193ZM114.621 52.0986V51.3486C115.035 51.3486 115.371 51.6844 115.371 52.0986H114.621ZM89.4092 52.0986H88.6592C88.6592 51.6844 88.995 51.3486 89.4092 51.3486V52.0986ZM89.4092 97.1193V96.3693H114.621V97.1193V97.8693H89.4092V97.1193ZM114.621 97.1193H113.871V52.0986H114.621H115.371V97.1193H114.621ZM114.621 52.0986V52.8486H89.4092V52.0986V51.3486H114.621V52.0986ZM89.4092 52.0986H90.1592V97.1193H89.4092H88.6592V52.0986H89.4092Z" fill="#2D3D4D" style="fill:#2D3D4D;fill:color(display-p3 0.1765 0.2392 0.3020);fill-opacity:1;"></path> <path d="M114.621 17.8829H89.4092" stroke="#2D3D4D" style="stroke:#2D3D4D;stroke:color(display-p3 0.1765 0.2392 0.3020);stroke-opacity:1;" stroke-width="1.5" stroke-linecap="round" stroke-linejoin="round"></path> <path d="M63 157V167" stroke="#2D3D4D" style="stroke:#2D3D4D;stroke:color(display-p3 0.1765 0.2392 0.3020);stroke-opacity:1;" stroke-width="1.5"></path> </g> <defs> <clipPath id="clip0_12517_13454"> <rect width="168" height="168" fill="white" style="fill:white;fill-opacity:1;"></rect> </clipPath> </defs> </svg>