<svg viewBox="0 0 168 168" fill="none" xmlns="http://www.w3.org/2000/svg"> <path d="M59.6504 91.3674C59.7232 87.3608 56.6636 84.0827 52.657 84.0099C48.6505 83.937 45.2995 87.1423 45.2266 91.1489C45.2266 95.2283 48.4319 98.5065 52.3657 98.5065C56.3722 98.5793 59.5775 95.4469 59.6504 91.3674ZM54.114 75.7053C61.6172 75.7053 68.9019 81.7516 68.8291 91.8774C68.6834 100.838 61.7629 107.248 51.9286 107.175C43.1869 107.03 36.3393 100.692 35.538 90.639C34.3724 75.851 36.8492 57.4207 54.0411 57.9306C59.5775 58.1492 65.041 59.8975 68.392 67.1822L60.1603 70.6789C58.6305 67.5465 56.2265 66.3081 53.7497 66.3081C46.9021 66.3081 44.0611 73.5199 44.4982 81.096C45.3723 78.6921 49.0875 75.7053 54.114 75.7053Z" fill="#2D3D4D" style="fill:#2D3D4D;fill:color(display-p3 0.1765 0.2392 0.3020);fill-opacity:1;"></path> <path d="M74.7155 95.4456V89.5704H94.9331V95.4456H74.7155Z" fill="#2D3D4D" style="fill:#2D3D4D;fill:color(display-p3 0.1765 0.2392 0.3020);fill-opacity:1;"></path> <path d="M110.028 73.7387C109.882 77.7453 113.014 81.0234 117.021 81.0963C121.027 81.1691 124.378 78.0367 124.451 74.0301C124.451 69.8778 121.246 66.6726 117.312 66.5997C113.306 66.5269 110.1 69.7322 110.028 73.7387ZM115.491 89.4009C108.061 89.4009 100.776 83.3545 100.849 73.2288C100.995 64.2686 107.915 57.8581 117.676 58.0038C126.491 58.1495 133.266 64.4143 134.14 74.4672C135.305 89.328 132.829 107.758 115.637 107.176C110.1 106.957 104.637 105.209 101.286 97.924L109.518 94.4273C111.047 97.5597 113.451 98.7981 115.928 98.7981C122.776 98.7981 125.617 91.6591 125.18 84.0102C124.306 86.487 120.59 89.4009 115.491 89.4009Z" fill="#2D3D4D" style="fill:#2D3D4D;fill:color(display-p3 0.1765 0.2392 0.3020);fill-opacity:1;"></path> </svg>