<svg viewBox="0 0 168 168" fill="none" xmlns="http://www.w3.org/2000/svg"> <path d="M56.5024 62.0391C46.0327 62.0391 40.6701 68.5508 39.6487 71.4874C39.2656 60.2516 42.713 47.3559 54.9703 47.3559C58.8007 47.3559 62.3757 49.1434 64.674 53.9952L81.4 46.8452C75.2714 34.0772 65.5677 31.0128 55.6087 30.6298C24.1994 29.6084 19.7306 62.2944 21.7735 88.0858C23.3056 105.833 35.946 117.197 51.7783 117.197C70.0365 117.197 82.1661 106.344 82.1661 90.2564C82.1661 70.9767 68.3767 62.0391 56.5024 62.0391ZM63.6525 89.2349C63.6525 95.2359 58.673 100.215 52.672 100.215C46.6711 100.215 41.6916 95.2359 41.6916 89.2349C41.6916 83.234 46.6711 78.2544 52.672 78.2544C58.673 78.2544 63.6525 83.234 63.6525 89.2349ZM127.867 89.1072H147.658V76.0839H127.867V56.4212H114.844V76.0839H95.1814V89.1072H114.844V108.898H127.867V89.1072Z" fill="#2D3D4D" style="fill:#2D3D4D;fill:color(display-p3 0.1765 0.2392 0.3020);fill-opacity:1;"></path> </svg>