<svg viewBox="0 0 168 168" fill="none" xmlns="http://www.w3.org/2000/svg"> <path fill-rule="evenodd" clip-rule="evenodd" d="M20.4258 74H82.149V151.155H20.4258V74Z" stroke="#2D3D4D" style="stroke:#2D3D4D;stroke:color(display-p3 0.1765 0.2392 0.3020);stroke-opacity:1;" stroke-width="1.5" stroke-linecap="round" stroke-linejoin="round"></path> <path d="M71.8633 146.012C74.136 146.012 75.9783 144.17 75.9783 141.897C75.9783 139.625 74.136 137.782 71.8633 137.782C69.5906 137.782 67.7483 139.625 67.7483 141.897C67.7483 144.17 69.5906 146.012 71.8633 146.012Z" stroke="#2D3D4D" style="stroke:#2D3D4D;stroke:color(display-p3 0.1765 0.2392 0.3020);stroke-opacity:1;" stroke-width="1.5" stroke-linecap="round" stroke-linejoin="round"></path> <path d="M28.142 143.952C28.994 143.952 29.6846 143.262 29.6846 142.41C29.6846 141.558 28.994 140.867 28.142 140.867C27.29 140.867 26.5994 141.558 26.5994 142.41C26.5994 143.262 27.29 143.952 28.142 143.952Z" stroke="#2D3D4D" style="stroke:#2D3D4D;stroke:color(display-p3 0.1765 0.2392 0.3020);stroke-opacity:1;" stroke-width="1.5" stroke-linecap="round" stroke-linejoin="round"></path> <path d="M35.3422 143.952C36.1942 143.952 36.8848 143.262 36.8848 142.41C36.8848 141.558 36.1942 140.867 35.3422 140.867C34.4902 140.867 33.7996 141.558 33.7996 142.41C33.7996 143.262 34.4902 143.952 35.3422 143.952Z" stroke="#2D3D4D" style="stroke:#2D3D4D;stroke:color(display-p3 0.1765 0.2392 0.3020);stroke-opacity:1;" stroke-width="1.5" stroke-linecap="round" stroke-linejoin="round"></path> <path d="M20.4258 132.124H82.15" stroke="#2D3D4D" style="stroke:#2D3D4D;stroke:color(display-p3 0.1765 0.2392 0.3020);stroke-opacity:1;" stroke-width="1.5" stroke-linecap="round" stroke-linejoin="round"></path> <path fill-rule="evenodd" clip-rule="evenodd" d="M52.9814 117.08C53.2245 118.672 52.0821 119.16 52.0821 119.16C52.6998 115.957 49.572 113.092 49.572 113.092C49.8151 115.284 47.1736 117.754 47.1736 120.359C47.1783 121.346 47.5725 122.292 48.2705 122.99C48.9686 123.688 49.914 124.082 50.9012 124.087C52.9597 124.087 54.6288 122.494 54.6288 120.397C54.6288 117.848 52.9814 117.08 52.9814 117.08Z" stroke="#2D3D4D" style="stroke:#2D3D4D;stroke:color(display-p3 0.1765 0.2392 0.3020);stroke-opacity:1;" stroke-width="1.5"></path> <path fill-rule="evenodd" clip-rule="evenodd" d="M100.118 141.283V72.2726C100.118 57.8711 149.324 58.4709 149.324 72.2726V141.283H100.118Z" stroke="#2D3D4D" style="stroke:#2D3D4D;stroke:color(display-p3 0.1765 0.2392 0.3020);stroke-opacity:1;" stroke-width="1.5" stroke-linecap="round" stroke-linejoin="round"></path> <path d="M124.121 61.4712V54.2699C124.121 53.2698 124.721 51.2697 127.122 51.2697H132.522M136.123 135.282V150.884" stroke="#2D3D4D" style="stroke:#2D3D4D;stroke:color(display-p3 0.1765 0.2392 0.3020);stroke-opacity:1;" stroke-width="1.5" stroke-linecap="round" stroke-linejoin="round"></path> <path d="M136.124 136.093C137.566 136.093 138.735 134.923 138.735 133.481C138.735 132.038 137.566 130.869 136.124 130.869C134.681 130.869 133.512 132.038 133.512 133.481C133.512 134.923 134.681 136.093 136.124 136.093Z" fill="#2D3D4D" stroke="#2D3D4D" style="fill:#2D3D4D;fill:color(display-p3 0.1765 0.2392 0.3020);fill-opacity:1;stroke:#2D3D4D;stroke:color(display-p3 0.1765 0.2392 0.3020);stroke-opacity:1;" stroke-width="1.5"></path> <path d="M113.321 135.281V150.884" stroke="#2D3D4D" style="stroke:#2D3D4D;stroke:color(display-p3 0.1765 0.2392 0.3020);stroke-opacity:1;" stroke-width="1.5" stroke-linecap="round" stroke-linejoin="round"></path> <path d="M113.32 136.093C114.762 136.093 115.932 134.923 115.932 133.481C115.932 132.038 114.762 130.869 113.32 130.869C111.877 130.869 110.708 132.038 110.708 133.481C110.708 134.923 111.877 136.093 113.32 136.093Z" fill="#2D3D4D" stroke="#2D3D4D" style="fill:#2D3D4D;fill:color(display-p3 0.1765 0.2392 0.3020);fill-opacity:1;stroke:#2D3D4D;stroke:color(display-p3 0.1765 0.2392 0.3020);stroke-opacity:1;" stroke-width="1.5"></path> <path d="M108.656 56.9619V37.8761C108.656 33.4814 108.656 29.9237 105.607 29.9237H100.118M34.2078 22.8084H100.118M34.2078 17.1162V22.8084L37.2041 50.5581H97.1228L100.118 22.8084V17.1162" stroke="#2D3D4D" style="stroke:#2D3D4D;stroke:color(display-p3 0.1765 0.2392 0.3020);stroke-opacity:1;" stroke-width="1.5" stroke-linecap="round" stroke-linejoin="round"></path> <path d="M28.8149 34.9045H34.8066L34.2077 27.0776H28.8149V34.9045Z" fill="#2D3D4D" stroke="#2D3D4D" style="fill:#2D3D4D;fill:color(display-p3 0.1765 0.2392 0.3020);fill-opacity:1;stroke:#2D3D4D;stroke:color(display-p3 0.1765 0.2392 0.3020);stroke-opacity:1;" stroke-width="1.5"></path> <path d="M20.4258 23.52H28.216L30.0136 25.6546H34.2077M51.7331 51.2697V54.4004C51.7331 54.7799 52.1877 55.5388 54.01 55.5388H88.7326C89.6813 55.444 91.5787 55.5952 91.5787 56.9619M24.6208 28.5007H29.4138V32.7699H24.6208V28.5007Z" stroke="#2D3D4D" style="stroke:#2D3D4D;stroke:color(display-p3 0.1765 0.2392 0.3020);stroke-opacity:1;" stroke-width="1.5" stroke-linecap="round" stroke-linejoin="round"></path> <path d="M55.001 62L55 74.0031" stroke="#2D3D4D" style="stroke:#2D3D4D;stroke:color(display-p3 0.1765 0.2392 0.3020);stroke-opacity:1;" stroke-width="1.5" stroke-linecap="round" stroke-linejoin="round"></path> <path d="M47.001 62L47 74.0031" stroke="#2D3D4D" style="stroke:#2D3D4D;stroke:color(display-p3 0.1765 0.2392 0.3020);stroke-opacity:1;" stroke-width="1.5" stroke-linecap="round" stroke-linejoin="round"></path> </svg>