<svg viewBox="0 0 168 168" fill="none" xmlns="http://www.w3.org/2000/svg"> <path fill-rule="evenodd" clip-rule="evenodd" d="M20.8321 44.9844H87.7159V128.589H20.8321V44.9844Z" stroke="#2D3D4D" style="stroke:#2D3D4D;stroke:color(display-p3 0.1765 0.2392 0.3020);stroke-opacity:1;" stroke-width="1.5" stroke-linecap="round" stroke-linejoin="round"></path> <path d="M76.5685 123.015C79.0311 123.015 81.0274 121.019 81.0274 118.557C81.0274 116.094 79.0311 114.098 76.5685 114.098C74.1059 114.098 72.1096 116.094 72.1096 118.557C72.1096 121.019 74.1059 123.015 76.5685 123.015Z" stroke="#2D3D4D" style="stroke:#2D3D4D;stroke:color(display-p3 0.1765 0.2392 0.3020);stroke-opacity:1;" stroke-width="1.5" stroke-linecap="round" stroke-linejoin="round"></path> <path d="M29.1924 120.786C30.1158 120.786 30.8645 120.037 30.8645 119.114C30.8645 118.191 30.1158 117.442 29.1924 117.442C28.2689 117.442 27.5203 118.191 27.5203 119.114C27.5203 120.037 28.2689 120.786 29.1924 120.786Z" stroke="#2D3D4D" style="stroke:#2D3D4D;stroke:color(display-p3 0.1765 0.2392 0.3020);stroke-opacity:1;" stroke-width="1.5" stroke-linecap="round" stroke-linejoin="round"></path> <path d="M36.9955 120.786C37.9189 120.786 38.6676 120.037 38.6676 119.114C38.6676 118.191 37.9189 117.442 36.9955 117.442C36.072 117.442 35.3234 118.191 35.3234 119.114C35.3234 120.037 36.072 120.786 36.9955 120.786Z" stroke="#2D3D4D" style="stroke:#2D3D4D;stroke:color(display-p3 0.1765 0.2392 0.3020);stroke-opacity:1;" stroke-width="1.5" stroke-linecap="round" stroke-linejoin="round"></path> <path d="M20.8321 107.967H87.7159" stroke="#2D3D4D" style="stroke:#2D3D4D;stroke:color(display-p3 0.1765 0.2392 0.3020);stroke-opacity:1;" stroke-width="1.5" stroke-linecap="round" stroke-linejoin="round"></path> <path fill-rule="evenodd" clip-rule="evenodd" d="M56.109 91.6658C56.3719 93.3913 55.1336 93.919 55.1336 93.919C55.8036 90.4473 52.414 87.3442 52.414 87.3442C52.6778 89.719 49.8149 92.3961 49.8149 95.2185C49.8149 97.4351 51.6382 99.2584 53.8548 99.2584C56.0862 99.2584 57.8947 97.532 57.8947 95.259C57.8947 92.4979 56.109 91.6658 56.109 91.6658Z" stroke="#2D3D4D" style="stroke:#2D3D4D;stroke:color(display-p3 0.1765 0.2392 0.3020);stroke-opacity:1;" stroke-width="1.5"></path> <path d="M63.1907 128.589V137.507M45.356 128.591V137.509M54.2729 128.589V137.507M99.9778 128.589V42.1977C117.368 34.1722 137.693 38.8535 145.682 42.1977V128.589C127.846 135.723 107.781 131.562 99.9778 128.589Z" stroke="#2D3D4D" style="stroke:#2D3D4D;stroke:color(display-p3 0.1765 0.2392 0.3020);stroke-opacity:1;" stroke-width="1.5" stroke-linecap="round" stroke-linejoin="round"></path> <path d="M122.272 37.7386V31.0503C122.272 30.1213 122.83 28.2634 125.059 28.2634H130.075M139.551 109.081H151.813M95.5189 121.343H111.125M132.305 123.015V137.507" stroke="#2D3D4D" style="stroke:#2D3D4D;stroke:color(display-p3 0.1765 0.2392 0.3020);stroke-opacity:1;" stroke-width="1.5" stroke-linecap="round" stroke-linejoin="round"></path> <path d="M140.235 109.081V109.13C140.232 109.754 139.983 110.351 139.542 110.792C139.101 111.233 138.503 111.483 137.88 111.486C137.256 111.483 136.658 111.234 136.217 110.793C135.776 110.351 135.527 109.754 135.524 109.13V109.081C135.539 108.466 135.793 107.881 136.233 107.45C136.673 107.019 137.263 106.777 137.879 106.774C138.494 106.777 139.085 107.019 139.525 107.45C139.965 107.881 140.219 108.466 140.235 109.081ZM134.661 121.343C134.658 121.967 134.409 122.565 133.968 123.006C133.527 123.447 132.929 123.697 132.305 123.699C131.681 123.697 131.083 123.447 130.642 123.006C130.201 122.565 129.952 121.967 129.949 121.343C129.952 120.72 130.201 120.122 130.642 119.681C131.083 119.24 131.681 118.99 132.305 118.988C132.929 118.99 133.527 119.24 133.968 119.681C134.409 120.122 134.658 120.72 134.661 121.343Z" fill="#2D3D4D" stroke="#2D3D4D" style="fill:#2D3D4D;fill:color(display-p3 0.1765 0.2392 0.3020);fill-opacity:1;stroke:#2D3D4D;stroke:color(display-p3 0.1765 0.2392 0.3020);stroke-opacity:1;" stroke-width="1.5"></path> <path d="M113.355 123.699C114.656 123.699 115.711 122.645 115.711 121.343C115.711 120.042 114.656 118.988 113.355 118.988C112.053 118.988 110.999 120.042 110.999 121.343C110.999 122.645 112.053 123.699 113.355 123.699Z" fill="#2D3D4D" stroke="#2D3D4D" style="fill:#2D3D4D;fill:color(display-p3 0.1765 0.2392 0.3020);fill-opacity:1;stroke:#2D3D4D;stroke:color(display-p3 0.1765 0.2392 0.3020);stroke-opacity:1;" stroke-width="1.5"></path> </svg>