<svg viewBox="0 0 168 168" fill="none" xmlns="http://www.w3.org/2000/svg"> <path d="M12.4321 70.2213V76.4331L18.6438 73.9484V101.788H25.5897V64.4048L12.4321 70.2213ZM34.0775 83.3225C34.0775 93.826 37.0705 102.353 47.7999 102.353C58.5296 102.353 61.3531 93.826 61.3531 83.3225C61.3531 72.706 58.5296 64.179 47.7999 64.179C37.0705 64.179 34.0775 72.706 34.0775 83.3225ZM41.0234 83.3225C41.0234 76.546 42.4917 70.9554 47.7999 70.9554C52.9952 70.9554 54.4634 76.546 54.4634 83.3225C54.4634 90.0425 52.9952 95.5766 47.7999 95.5766C42.4917 95.5766 41.0234 90.0425 41.0234 83.3225ZM68.2729 91.0025H88.0941V85.2425H68.2729V91.0025ZM117.786 101.788V95.1813H105.306L114.454 84.7343C116.769 82.1366 118.407 78.8613 118.407 75.3037C118.407 68.6966 112.986 64.179 106.491 64.179C99.9409 64.179 95.0844 68.3578 94.0115 75.0778L100.449 76.2637C100.901 73.1013 103.216 70.899 106.209 70.899C109.371 70.899 111.517 72.819 111.517 75.3037C111.517 76.9978 110.557 78.6354 109.259 80.1601L94.1809 98.2307V101.788H117.786ZM125.015 83.3225C125.015 93.826 128.008 102.353 138.738 102.353C149.467 102.353 152.291 93.826 152.291 83.3225C152.291 72.706 149.467 64.179 138.738 64.179C128.008 64.179 125.015 72.706 125.015 83.3225ZM131.961 83.3225C131.961 76.546 133.429 70.9554 138.738 70.9554C143.933 70.9554 145.401 76.546 145.401 83.3225C145.401 90.0425 143.933 95.5766 138.738 95.5766C133.429 95.5766 131.961 90.0425 131.961 83.3225Z" fill="#2D3D4D" style="fill:#2D3D4D;fill:color(display-p3 0.1765 0.2392 0.3020);fill-opacity:1;"></path> </svg>