<svg viewBox="0 0 168 168" fill="none" xmlns="http://www.w3.org/2000/svg"> <path d="M9.12839 65.7257L26.1018 58.2224V106.447H17.1416V70.5336L9.12839 73.7388V65.7257Z" fill="#2D3D4D" style="fill:#2D3D4D;fill:color(display-p3 0.1765 0.2392 0.3020);fill-opacity:1;"></path> <path d="M35.3569 82.6261C35.3569 68.9308 39.2178 57.9309 53.0587 57.9309C66.8996 57.9309 70.542 68.9308 70.542 82.6261C70.542 96.1756 66.8996 107.176 53.0587 107.176C39.2178 107.176 35.3569 96.1756 35.3569 82.6261ZM44.3171 82.6261C44.3171 91.2949 46.2111 98.4339 53.0587 98.4339C59.7606 98.4339 61.6546 91.2949 61.6546 82.6261C61.6546 73.8844 59.7606 66.6726 53.0587 66.6726C46.2111 66.6726 44.3171 73.8844 44.3171 82.6261Z" fill="#2D3D4D" style="fill:#2D3D4D;fill:color(display-p3 0.1765 0.2392 0.3020);fill-opacity:1;"></path> <path d="M76.8136 95.4455V89.5703H97.0312V95.4455H76.8136Z" fill="#2D3D4D" style="fill:#2D3D4D;fill:color(display-p3 0.1765 0.2392 0.3020);fill-opacity:1;"></path> <path d="M101.782 65.7257L118.756 58.2224V106.447H109.795V70.5336L101.782 73.7388V65.7257Z" fill="#2D3D4D" style="fill:#2D3D4D;fill:color(display-p3 0.1765 0.2392 0.3020);fill-opacity:1;"></path> <path d="M142.434 85.2484H137.335V77.3081H142.434C146.951 77.381 147.825 73.3015 147.825 72.0631C147.825 70.3148 147.024 67.3281 143.6 66.6724C140.832 66.3082 138.136 67.1824 136.242 69.5863L129.249 64.997C131.944 60.4804 137.481 57.5666 143.673 57.9308C151.832 58.3679 157.441 64.1956 157.441 71.2618C157.441 75.1955 154.964 78.6194 151.54 80.5862C156.567 82.4803 159.99 88.4537 159.481 93.553C158.606 102.222 150.375 107.758 141.123 107.103C134.567 106.665 128.885 102.586 126.335 97.0497C126.991 96.6854 133.474 93.4802 134.13 93.1159C135.514 95.957 138.573 98.4338 141.852 98.4338C146.368 98.4338 149.865 95.5199 149.865 91.3676C149.865 90.1292 148.918 85.0299 142.434 85.2484Z" fill="#2D3D4D" style="fill:#2D3D4D;fill:color(display-p3 0.1765 0.2392 0.3020);fill-opacity:1;"></path> </svg>