<svg viewBox="0 0 168 168" fill="none" xmlns="http://www.w3.org/2000/svg"> <path d="M49.2361 79.6588C61.8764 79.148 60.7273 89.2348 60.5996 90.7669C60.0889 95.108 54.9817 100.088 48.5977 99.7045C43.8735 99.4492 38.0003 95.6188 36.2127 91.6607L20.5081 99.4492C25.1046 109.153 35.4467 116.175 47.1932 116.941C63.9193 118.09 78.7302 107.493 80.1347 93.1928C80.9007 84.2552 75.0275 73.7855 65.8345 70.4658C71.9631 67.0184 76.5596 61.0175 76.5596 54.1228C76.9427 42.1208 66.3452 31.3957 51.7897 30.6296C40.5539 29.9912 30.7225 35.0984 25.743 43.0146L40.1708 51.8245C41.703 49.2709 44.6396 47.228 48.9807 47.228C55.2371 47.228 57.4076 52.7183 57.4076 55.2719C57.4076 55.6549 58.046 64.3372 49.2361 64.3372H40.4262V79.6588H49.2361ZM125.686 89.1071H145.476V76.0837H125.686V56.421H112.662V76.0837H92.9994V89.1071H112.662V108.897H125.686V89.1071Z" fill="#2D3D4D" style="fill:#2D3D4D;fill:color(display-p3 0.1765 0.2392 0.3020);fill-opacity:1;"></path> </svg>