<svg viewBox="0 0 168 168" fill="none" xmlns="http://www.w3.org/2000/svg"> <path d="M81.477 79.2018C95.4479 78.6374 94.1778 89.7858 94.0367 91.4793C93.4722 96.2774 87.8274 101.781 80.7714 101.358C75.5499 101.075 69.0584 96.8418 67.0827 92.4671L49.725 101.075C54.8053 111.801 66.236 119.562 79.2191 120.409C97.7058 121.679 114.076 109.966 115.628 94.1606C116.475 84.2822 109.983 72.7103 99.8226 69.0412C106.596 65.231 111.677 58.5983 111.677 50.9778C112.1 37.7126 100.387 25.8585 84.2994 25.0118C71.8808 24.3062 61.0146 29.951 55.5109 38.7004L71.4575 48.4377C73.1509 45.6153 76.3967 43.3574 81.1947 43.3574C88.1096 43.3574 90.5087 49.4255 90.5087 52.2479C90.5087 52.6713 91.2143 62.2674 81.477 62.2674H71.7397V79.2018H81.477Z" fill="#2D3D4D" style="fill:#2D3D4D;fill:color(display-p3 0.1765 0.2392 0.3020);fill-opacity:1;"></path> </svg>