<svg viewBox="0 0 168 168" fill="none" xmlns="http://www.w3.org/2000/svg"> <path d="M63.5209 101.788V95.1813H51.0412L60.1891 84.7343C62.5044 82.1366 64.142 78.8613 64.142 75.3037C64.142 68.6966 58.7209 64.179 52.227 64.179C45.6765 64.179 40.82 68.3578 39.747 75.0778L46.1847 76.2637C46.6364 73.1013 48.9517 70.899 51.9447 70.899C55.107 70.899 57.2526 72.819 57.2526 75.3037C57.2526 76.9978 56.2926 78.6354 54.9941 80.1601L39.9165 98.2307V101.788H63.5209ZM90.5717 89.139C90.5717 92.5272 87.6352 95.5201 82.7223 95.5201C79.9552 95.5201 77.1882 93.6566 75.7199 90.946C75.2117 91.2284 70.4117 94.2778 69.9035 94.5601C72.5011 99.2472 77.5835 102.353 82.7223 102.353C91.6446 102.353 97.4611 96.9319 97.4611 89.139C97.4611 81.1201 91.927 76.8284 85.207 76.8284C82.8352 76.8284 79.8988 77.506 78.374 78.8048L79.6729 71.2378H95.1458V64.8566H74.1387L71.0329 84.1131L74.9858 86.4848C77.6964 83.5484 80.9152 82.7578 83.4564 82.7578C87.4093 82.7578 90.5717 84.8472 90.5717 89.139ZM117.397 89.7601H126.263V84.2825H117.397V75.4731H111.919V84.2825H103.053V89.7601H111.919V98.6825H117.397V89.7601Z" fill="#2D3D4D" style="fill:#2D3D4D;fill:color(display-p3 0.1765 0.2392 0.3020);fill-opacity:1;"></path> </svg>