<svg viewBox="0 0 168 168" fill="none" xmlns="http://www.w3.org/2000/svg"> <path d="M32.4735 102.031V95.4046H19.9935L29.1418 84.9274C31.457 82.3222 33.0947 79.0375 33.0947 75.4696C33.0947 68.8434 27.6735 64.3127 21.1794 64.3127C14.6288 64.3127 9.77234 68.5036 8.6994 75.243L15.137 76.4323C15.5888 73.2609 17.9041 71.0521 20.897 71.0521C24.0594 71.0521 26.2053 72.9777 26.2053 75.4696C26.2053 77.1686 25.2453 78.811 23.9465 80.3401L8.86881 98.4628V102.031H32.4735ZM39.7026 83.5115C39.7026 94.0454 42.6955 102.597 53.425 102.597C64.1542 102.597 66.9777 94.0454 66.9777 83.5115C66.9777 72.8644 64.1542 64.3127 53.425 64.3127C42.6955 64.3127 39.7026 72.8644 39.7026 83.5115ZM46.6485 83.5115C46.6485 76.7155 48.1167 71.1088 53.425 71.1088C58.62 71.1088 60.0883 76.7155 60.0883 83.5115C60.0883 90.2509 58.62 95.801 53.425 95.801C48.1167 95.801 46.6485 90.2509 46.6485 83.5115ZM73.8975 91.2137H93.7186V85.4371H73.8975V91.2137ZM123.411 102.031V95.4046H110.931L120.079 84.9274C122.394 82.3222 124.032 79.0375 124.032 75.4696C124.032 68.8434 118.611 64.3127 112.117 64.3127C105.566 64.3127 100.71 68.5036 99.6367 75.243L106.074 76.4323C106.526 73.2609 108.841 71.0521 111.834 71.0521C114.997 71.0521 117.143 72.9777 117.143 75.4696C117.143 77.1686 116.183 78.811 114.884 80.3401L99.8062 98.4628V102.031H123.411ZM150.461 89.3448C150.461 92.7428 147.525 95.7444 142.612 95.7444C139.845 95.7444 137.077 93.8755 135.609 91.1571C135.101 91.4402 130.301 94.4985 129.793 94.7816C132.39 99.4822 137.473 102.597 142.612 102.597C151.534 102.597 157.35 97.1602 157.35 89.3448C157.35 81.3028 151.816 76.9987 145.096 76.9987C142.725 76.9987 139.788 77.6783 138.263 78.9809L139.562 71.3919H155.035V64.9923H134.028L130.922 84.3044L134.875 86.683C137.586 83.7381 140.805 82.9452 143.346 82.9452C147.299 82.9452 150.461 85.0407 150.461 89.3448Z" fill="#2D3D4D" style="fill:#2D3D4D;fill:color(display-p3 0.1765 0.2392 0.3020);fill-opacity:1;"></path> </svg>