<svg viewBox="0 0 168 168" fill="none" xmlns="http://www.w3.org/2000/svg"> <path d="M77.4475 115.92V99.0664H51.6561L70.9358 77.2331C76.043 71.4875 79.7457 64.082 79.7457 56.0382C79.7457 40.972 67.2331 30.6299 52.4222 30.6299C36.5899 30.6299 25.7371 40.5889 23.1835 56.5489L39.5265 59.3579C40.548 52.7185 45.0168 47.739 51.4008 47.739C58.0401 47.739 61.8705 51.5694 61.8705 56.0382C61.8705 59.2302 59.9553 62.5499 57.4017 65.4865L23.0558 106.216V115.92H77.4475ZM125.436 89.1073H145.227V76.084H125.436V56.4212H112.413V76.084H92.7501V89.1073H112.413V108.898H125.436V89.1073Z" fill="#2D3D4D" style="fill:#2D3D4D;fill:color(display-p3 0.1765 0.2392 0.3020);fill-opacity:1;"></path> </svg>