<svg viewBox="0 0 168 168" fill="none" xmlns="http://www.w3.org/2000/svg"> <path d="M76.8947 70.2213V76.4331L83.1064 73.9484V101.788H90.0523V64.4048L76.8947 70.2213ZM98.5398 83.3225C98.5398 93.826 101.533 102.353 112.262 102.353C122.992 102.353 125.815 93.826 125.815 83.3225C125.815 72.706 122.992 64.179 112.262 64.179C101.533 64.179 98.5398 72.706 98.5398 83.3225ZM105.486 83.3225C105.486 76.546 106.954 70.9554 112.262 70.9554C117.457 70.9554 118.926 76.546 118.926 83.3225C118.926 90.0425 117.457 95.5766 112.262 95.5766C106.954 95.5766 105.486 90.0425 105.486 83.3225Z" fill="#2D3D4D" style="fill:#2D3D4D;fill:color(display-p3 0.1765 0.2392 0.3020);fill-opacity:1;"></path> <path d="M49.5093 81.053C52.5089 81.053 55.1255 79.0038 55.1255 75.6098V66.1536H52.1685V75.439C52.1685 77.4242 50.8921 78.2353 49.5093 78.2353C48.1478 78.2353 46.8714 77.4242 46.8714 75.439V66.1536H43.9144V75.6098C43.9144 79.0038 46.531 81.053 49.5093 81.053ZM64.5004 66.1536H58.5226V80.8609H61.4796V75.7165H64.5004C67.8191 75.7165 69.2869 73.3685 69.2869 70.9564C69.2869 68.5443 67.8191 66.1536 64.5004 66.1536ZM64.3515 73.1123H61.4796V68.7791H64.394C65.7768 68.7791 66.3087 69.8891 66.3087 70.9564C66.3087 72.0023 65.7768 73.1123 64.3515 73.1123ZM53.535 87.4994H42.4941V90.125H46.5361V102.207H49.4931V90.125H53.535V87.4994ZM61.7301 102.399C65.8784 102.399 69.197 99.0262 69.197 94.8638C69.197 90.68 65.8784 87.3073 61.7301 87.3073C57.5605 87.3073 54.2844 90.68 54.2844 94.8638C54.2844 99.0262 57.5605 102.399 61.7301 102.399ZM61.7301 99.6239C59.0922 99.6239 57.2414 97.5107 57.2414 94.8638C57.2414 92.2169 59.0922 90.1036 61.7301 90.1036C64.3467 90.1036 66.2187 92.2169 66.2187 94.8638C66.2187 97.5107 64.3467 99.6239 61.7301 99.6239Z" fill="#2D3D4D" style="fill:#2D3D4D;fill:color(display-p3 0.1765 0.2392 0.3020);fill-opacity:1;"></path> </svg>