<svg viewBox="0 0 168 168" fill="none" xmlns="http://www.w3.org/2000/svg"> <mask id="mask0_12517_13989" style="mask-type:luminance" maskUnits="userSpaceOnUse" x="0" y="0" width="152" height="152"> <path d="M151.915 0H0V151.915H151.915V0Z" fill="white" style="fill:white;fill-opacity:1;"></path> </mask> <g mask="url(#mask0_12517_13989)"> <path d="M112.596 137.617H151.915M112.596 171.574H151.915" stroke="#2D3D4D" style="stroke:#2D3D4D;stroke:color(display-p3 0.1765 0.2392 0.3020);stroke-opacity:1;" stroke-width="1.5"></path> <path d="M141.638 126.894C141.638 126.894 143.872 127.34 147.447 127.34C150.128 127.34 153.255 126.894 153.255 126.894" stroke="#2D3D4D" style="stroke:#2D3D4D;stroke:color(display-p3 0.1765 0.2392 0.3020);stroke-opacity:1;" stroke-width="1.5"></path> <path d="M140.155 128.395C141.063 128.395 141.799 127.659 141.799 126.751C141.799 125.843 141.063 125.106 140.155 125.106C139.247 125.106 138.511 125.843 138.511 126.751C138.511 127.659 139.247 128.395 140.155 128.395Z" stroke="#2D3D4D" style="stroke:#2D3D4D;stroke:color(display-p3 0.1765 0.2392 0.3020);stroke-opacity:1;" stroke-width="1.5" stroke-linecap="round" stroke-linejoin="round"></path> <path d="M37.2459 146.41C37.2459 145.502 36.5098 144.766 35.6017 144.766C34.6936 144.766 33.9574 145.502 33.9574 146.41C33.9574 147.318 34.6936 148.054 35.6017 148.054C36.5098 148.054 37.2459 147.318 37.2459 146.41Z" stroke="#2D3D4D" style="stroke:#2D3D4D;stroke:color(display-p3 0.1765 0.2392 0.3020);stroke-opacity:1;" stroke-width="1.5" stroke-linecap="round" stroke-linejoin="round"></path> <path d="M35.7447 147.894C35.7447 147.894 35.7447 150.574 35.7447 153.702C35.7447 157.277 35.7447 159.511 35.7447 159.511" stroke="#2D3D4D" style="stroke:#2D3D4D;stroke:color(display-p3 0.1765 0.2392 0.3020);stroke-opacity:1;" stroke-width="1.5"></path> <path d="M-8.93617 115.277H151.915" stroke="#2D3D4D" style="stroke:#2D3D4D;stroke:color(display-p3 0.1765 0.2392 0.3020);stroke-opacity:1;" stroke-width="1.5"></path> <path d="M113.132 116.17V204.638" stroke="#2D3D4D" style="stroke:#2D3D4D;stroke:color(display-p3 0.1765 0.2392 0.3020);stroke-opacity:1;" stroke-width="1.5"></path> <path d="M47.3617 116.17V204.638" stroke="#2D3D4D" style="stroke:#2D3D4D;stroke:color(display-p3 0.1765 0.2392 0.3020);stroke-opacity:1;" stroke-width="1.5"></path> <path d="M103.374 146.41C103.374 145.502 102.637 144.766 101.729 144.766C100.821 144.766 100.085 145.502 100.085 146.41C100.085 147.318 100.821 148.054 101.729 148.054C102.637 148.054 103.374 147.318 103.374 146.41Z" stroke="#2D3D4D" style="stroke:#2D3D4D;stroke:color(display-p3 0.1765 0.2392 0.3020);stroke-opacity:1;" stroke-width="1.5" stroke-linecap="round" stroke-linejoin="round"></path> <path d="M101.872 147.894C101.872 147.894 101.872 150.574 101.872 153.702C101.872 157.277 101.872 159.511 101.872 159.511" stroke="#2D3D4D" style="stroke:#2D3D4D;stroke:color(display-p3 0.1765 0.2392 0.3020);stroke-opacity:1;" stroke-width="1.5"></path> <path d="M0 107.234H151.915" stroke="#2D3D4D" style="stroke:#2D3D4D;stroke:color(display-p3 0.1765 0.2392 0.3020);stroke-opacity:1;" stroke-width="1.5"></path> <path d="M108.664 8.93604H42.8936V91.1488H108.664V8.93604Z" stroke="#2D3D4D" style="stroke:#2D3D4D;stroke:color(display-p3 0.1765 0.2392 0.3020);stroke-opacity:1;" stroke-width="1.5" stroke-linecap="round" stroke-linejoin="round"></path> <path d="M97.7018 84.7269C100.123 84.7269 102.087 82.7638 102.087 80.3422C102.087 77.9206 100.123 75.9575 97.7018 75.9575C95.2802 75.9575 93.3172 77.9206 93.3172 80.3422C93.3172 82.7638 95.2802 84.7269 97.7018 84.7269Z" stroke="#2D3D4D" style="stroke:#2D3D4D;stroke:color(display-p3 0.1765 0.2392 0.3020);stroke-opacity:1;" stroke-width="1.5" stroke-linecap="round" stroke-linejoin="round"></path> <path d="M51.1161 82.5351C52.0242 82.5351 52.7603 81.7989 52.7603 80.8908C52.7603 79.9827 52.0242 79.2466 51.1161 79.2466C50.208 79.2466 49.4718 79.9827 49.4718 80.8908C49.4718 81.7989 50.208 82.5351 51.1161 82.5351Z" stroke="#2D3D4D" style="stroke:#2D3D4D;stroke:color(display-p3 0.1765 0.2392 0.3020);stroke-opacity:1;" stroke-width="1.5" stroke-linecap="round" stroke-linejoin="round"></path> <path d="M58.7877 82.5351C59.6958 82.5351 60.432 81.7989 60.432 80.8908C60.432 79.9827 59.6958 79.2466 58.7877 79.2466C57.8797 79.2466 57.1435 79.9827 57.1435 80.8908C57.1435 81.7989 57.8797 82.5351 58.7877 82.5351Z" stroke="#2D3D4D" style="stroke:#2D3D4D;stroke:color(display-p3 0.1765 0.2392 0.3020);stroke-opacity:1;" stroke-width="1.5" stroke-linecap="round" stroke-linejoin="round"></path> <path d="M42.8936 69.7021H108.664" stroke="#2D3D4D" style="stroke:#2D3D4D;stroke:color(display-p3 0.1765 0.2392 0.3020);stroke-opacity:1;" stroke-width="1.5" stroke-linecap="round" stroke-linejoin="round"></path> <path d="M77.5838 53.3983C77.8431 55.0951 76.6255 55.6143 76.6255 55.6143C77.2838 52.2008 73.9511 49.1489 73.9511 49.1489C74.2103 51.4841 71.3951 54.1167 71.3951 56.8919C71.3951 59.0863 73.1736 60.8647 75.3679 60.8647C77.5614 60.8647 79.3398 59.1671 79.3398 56.932C79.3398 54.2168 77.5838 53.3983 77.5838 53.3983Z" stroke="#2D3D4D" style="stroke:#2D3D4D;stroke:color(display-p3 0.1765 0.2392 0.3020);stroke-opacity:1;" stroke-width="1.5"></path> <path d="M86.7367 -2.68091V8.17237" stroke="#2D3D4D" style="stroke:#2D3D4D;stroke:color(display-p3 0.1765 0.2392 0.3020);stroke-opacity:1;" stroke-width="1.5" stroke-linecap="round" stroke-linejoin="round"></path> <path d="M65.234 -2.67993V8.17335" stroke="#2D3D4D" style="stroke:#2D3D4D;stroke:color(display-p3 0.1765 0.2392 0.3020);stroke-opacity:1;" stroke-width="1.5" stroke-linecap="round" stroke-linejoin="round"></path> <path d="M75.9853 -2.68091V8.17237" stroke="#2D3D4D" style="stroke:#2D3D4D;stroke:color(display-p3 0.1765 0.2392 0.3020);stroke-opacity:1;" stroke-width="1.5" stroke-linecap="round" stroke-linejoin="round"></path> </g> </svg>