<svg viewBox="0 0 168 168" fill="none" xmlns="http://www.w3.org/2000/svg"> <g clip-path="url(#clip0_12517_13951)"> <path d="M58.4204 124.506V88.8398L49.0346 94.4713V116.997L58.4204 124.506Z" stroke="#2D3D4D" style="stroke:#2D3D4D;stroke:color(display-p3 0.1765 0.2392 0.3020);stroke-opacity:1;" stroke-width="1.5"></path> <path d="M49.035 94.4712V93.7212H49.785V94.4712H49.035ZM39.6492 94.4712H38.8992V93.7212H39.6492V94.4712ZM39.6492 116.997V117.747H38.8992V116.997H39.6492ZM49.035 116.997H49.785V117.747H49.035V116.997ZM49.035 94.4712V95.2212H39.6492V94.4712V93.7212H49.035V94.4712ZM39.6492 94.4712H40.3992V116.997H39.6492H38.8992V94.4712H39.6492ZM39.6492 116.997V116.247H49.035V116.997V117.747H39.6492V116.997ZM49.035 116.997H48.285V94.4712H49.035H49.785V116.997H49.035Z" fill="#2D3D4D" style="fill:#2D3D4D;fill:color(display-p3 0.1765 0.2392 0.3020);fill-opacity:1;"></path> <path d="M19.0001 98.2253V97.4753H18.2501V98.2253H19.0001ZM39.6488 98.2253H40.3988V97.4753H39.6488V98.2253ZM39.6488 111.365V112.115H40.3988V111.365H39.6488ZM19.0001 111.365H18.2501V112.115H19.0001V111.365ZM19.0001 98.2253V98.9753H39.6488V98.2253V97.4753H19.0001V98.2253ZM39.6488 98.2253H38.8988V111.365H39.6488H40.3988V98.2253H39.6488ZM39.6488 111.365V110.615H19.0001V111.365V112.115H39.6488V111.365ZM19.0001 111.365H19.7501V98.2253H19.0001H18.2501V111.365H19.0001Z" fill="#2D3D4D" style="fill:#2D3D4D;fill:color(display-p3 0.1765 0.2392 0.3020);fill-opacity:1;"></path> <path d="M95.1262 -3.13745H58.4308L44.4429 66.0575H58.4308M95.1262 66.0575H58.4308M58.4308 66.0575V169.561" stroke="#2D3D4D" style="stroke:#2D3D4D;stroke:color(display-p3 0.1765 0.2392 0.3020);stroke-opacity:1;" stroke-width="1.5"></path> <path d="M95.1264 -5.01465V172.376" stroke="#2D3D4D" style="stroke:#2D3D4D;stroke:color(display-p3 0.1765 0.2392 0.3020);stroke-opacity:1;" stroke-width="1.5"></path> <path d="M95.1264 15.6345H273.457" stroke="#2D3D4D" style="stroke:#2D3D4D;stroke:color(display-p3 0.1765 0.2392 0.3020);stroke-opacity:1;" stroke-width="1.5"></path> </g> <defs> <clipPath id="clip0_12517_13951"> <rect width="168" height="168" fill="white" style="fill:white;fill-opacity:1;"></rect> </clipPath> </defs> </svg>