<svg viewBox="0 0 168 168" fill="none" xmlns="http://www.w3.org/2000/svg"> <path d="M34.0408 82.6261C34.0408 68.9308 37.9017 57.9309 51.7423 57.9309C65.5832 57.9309 69.2256 68.9308 69.2256 82.6261C69.2256 96.1756 65.5832 107.176 51.7423 107.176C37.9017 107.176 34.0408 96.1756 34.0408 82.6261ZM43.001 82.6261C43.001 91.2949 44.895 98.4339 51.7423 98.4339C58.4442 98.4339 60.3383 91.2949 60.3383 82.6261C60.3383 73.8844 58.4442 66.6726 51.7423 66.6726C44.895 66.6726 43.001 73.8844 43.001 82.6261Z" fill="#2D3D4D" style="fill:#2D3D4D;fill:color(display-p3 0.1765 0.2392 0.3020);fill-opacity:1;"></path> <path d="M75.4982 95.4455V89.5703H95.7158V95.4455H75.4982Z" fill="#2D3D4D" style="fill:#2D3D4D;fill:color(display-p3 0.1765 0.2392 0.3020);fill-opacity:1;"></path> <path d="M127.565 90.1297C127.565 84.5933 123.486 81.8979 118.386 81.8979C115.108 81.8979 110.956 82.9178 107.459 86.7058L102.36 83.6463L106.367 58.8054H133.466V67.0371H113.506L111.83 76.7986C113.797 75.1232 117.585 74.249 120.645 74.249C129.313 74.249 136.452 79.7854 136.452 90.1297C136.452 100.183 128.949 107.176 117.439 107.176C110.81 107.176 104.254 103.169 100.903 97.123C101.559 96.7587 107.751 92.825 108.406 92.4608C110.3 95.9574 113.87 98.3614 117.439 98.3614C123.777 98.3614 127.565 94.5005 127.565 90.1297Z" fill="#2D3D4D" style="fill:#2D3D4D;fill:color(display-p3 0.1765 0.2392 0.3020);fill-opacity:1;"></path> </svg>